<mxfile host="app.diagrams.net" modified="2024-04-20T16:21:19.549Z" agent="Mozilla/5.0 (Windows NT 10.0; Win64; x64) AppleWebKit/537.36 (KHTML, like Gecko) Chrome/123.0.0.0 Safari/537.36" etag="GOlP4y4jQtRGbjeFUUQx" version="24.2.5" type="device">
  <diagram name="Page-1" id="2YBvvXClWsGukQMizWep">
    <mxGraphModel dx="1900" dy="557" grid="1" gridSize="10" guides="1" tooltips="1" connect="1" arrows="1" fold="1" page="1" pageScale="1" pageWidth="850" pageHeight="1100" math="0" shadow="0">
      <root>
        <mxCell id="0" />
        <mxCell id="1" parent="0" />
        <mxCell id="aM9ryv3xv72pqoxQDRHE-1" value=":Website" style="shape=umlLifeline;perimeter=lifelinePerimeter;whiteSpace=wrap;html=1;container=0;dropTarget=0;collapsible=0;recursiveResize=0;outlineConnect=0;portConstraint=eastwest;newEdgeStyle={&quot;edgeStyle&quot;:&quot;elbowEdgeStyle&quot;,&quot;elbow&quot;:&quot;vertical&quot;,&quot;curved&quot;:0,&quot;rounded&quot;:0};" parent="1" vertex="1">
          <mxGeometry x="40" y="40" width="100" height="360" as="geometry" />
        </mxCell>
        <mxCell id="aM9ryv3xv72pqoxQDRHE-2" value="" style="html=1;points=[];perimeter=orthogonalPerimeter;outlineConnect=0;targetShapes=umlLifeline;portConstraint=eastwest;newEdgeStyle={&quot;edgeStyle&quot;:&quot;elbowEdgeStyle&quot;,&quot;elbow&quot;:&quot;vertical&quot;,&quot;curved&quot;:0,&quot;rounded&quot;:0};" parent="aM9ryv3xv72pqoxQDRHE-1" vertex="1">
          <mxGeometry x="45" y="70" width="10" height="250" as="geometry" />
        </mxCell>
        <mxCell id="aM9ryv3xv72pqoxQDRHE-5" value=":Book Store" style="shape=umlLifeline;perimeter=lifelinePerimeter;whiteSpace=wrap;html=1;container=0;dropTarget=0;collapsible=0;recursiveResize=0;outlineConnect=0;portConstraint=eastwest;newEdgeStyle={&quot;edgeStyle&quot;:&quot;elbowEdgeStyle&quot;,&quot;elbow&quot;:&quot;vertical&quot;,&quot;curved&quot;:0,&quot;rounded&quot;:0};" parent="1" vertex="1">
          <mxGeometry x="190" y="40" width="100" height="300" as="geometry" />
        </mxCell>
        <mxCell id="aM9ryv3xv72pqoxQDRHE-6" value="" style="html=1;points=[];perimeter=orthogonalPerimeter;outlineConnect=0;targetShapes=umlLifeline;portConstraint=eastwest;newEdgeStyle={&quot;edgeStyle&quot;:&quot;elbowEdgeStyle&quot;,&quot;elbow&quot;:&quot;vertical&quot;,&quot;curved&quot;:0,&quot;rounded&quot;:0};" parent="aM9ryv3xv72pqoxQDRHE-5" vertex="1">
          <mxGeometry x="45" y="80" width="10" height="170" as="geometry" />
        </mxCell>
        <mxCell id="aM9ryv3xv72pqoxQDRHE-7" value="Retrieve book inventory" style="html=1;verticalAlign=bottom;endArrow=block;edgeStyle=elbowEdgeStyle;elbow=vertical;curved=0;rounded=0;" parent="1" source="aM9ryv3xv72pqoxQDRHE-2" target="aM9ryv3xv72pqoxQDRHE-6" edge="1">
          <mxGeometry relative="1" as="geometry">
            <mxPoint x="195" y="130" as="sourcePoint" />
            <Array as="points">
              <mxPoint x="180" y="120" />
            </Array>
          </mxGeometry>
        </mxCell>
        <mxCell id="aM9ryv3xv72pqoxQDRHE-8" value="List of available books" style="html=1;verticalAlign=bottom;endArrow=open;dashed=1;endSize=8;edgeStyle=elbowEdgeStyle;elbow=vertical;curved=0;rounded=0;" parent="1" source="aM9ryv3xv72pqoxQDRHE-6" target="aM9ryv3xv72pqoxQDRHE-2" edge="1">
          <mxGeometry relative="1" as="geometry">
            <mxPoint x="195" y="205" as="targetPoint" />
            <Array as="points">
              <mxPoint x="180" y="150" />
            </Array>
          </mxGeometry>
        </mxCell>
        <mxCell id="kyCDcOvZ0czLDTHodb9r-10" value=":Book Store" style="shape=umlLifeline;perimeter=lifelinePerimeter;whiteSpace=wrap;html=1;container=0;dropTarget=0;collapsible=0;recursiveResize=0;outlineConnect=0;portConstraint=eastwest;newEdgeStyle={&quot;edgeStyle&quot;:&quot;elbowEdgeStyle&quot;,&quot;elbow&quot;:&quot;vertical&quot;,&quot;curved&quot;:0,&quot;rounded&quot;:0};" vertex="1" parent="1">
          <mxGeometry x="340" y="40" width="100" height="390" as="geometry" />
        </mxCell>
        <mxCell id="kyCDcOvZ0czLDTHodb9r-11" value="" style="html=1;points=[];perimeter=orthogonalPerimeter;outlineConnect=0;targetShapes=umlLifeline;portConstraint=eastwest;newEdgeStyle={&quot;edgeStyle&quot;:&quot;elbowEdgeStyle&quot;,&quot;elbow&quot;:&quot;vertical&quot;,&quot;curved&quot;:0,&quot;rounded&quot;:0};" vertex="1" parent="kyCDcOvZ0czLDTHodb9r-10">
          <mxGeometry x="45" y="310" width="10" height="60" as="geometry" />
        </mxCell>
        <mxCell id="kyCDcOvZ0czLDTHodb9r-15" value=":Customer&amp;nbsp;" style="shape=umlLifeline;perimeter=lifelinePerimeter;whiteSpace=wrap;html=1;container=0;dropTarget=0;collapsible=0;recursiveResize=0;outlineConnect=0;portConstraint=eastwest;newEdgeStyle={&quot;edgeStyle&quot;:&quot;elbowEdgeStyle&quot;,&quot;elbow&quot;:&quot;vertical&quot;,&quot;curved&quot;:0,&quot;rounded&quot;:0};" vertex="1" parent="1">
          <mxGeometry x="-110" y="40" width="100" height="390" as="geometry" />
        </mxCell>
        <mxCell id="kyCDcOvZ0czLDTHodb9r-16" value="" style="html=1;points=[];perimeter=orthogonalPerimeter;outlineConnect=0;targetShapes=umlLifeline;portConstraint=eastwest;newEdgeStyle={&quot;edgeStyle&quot;:&quot;elbowEdgeStyle&quot;,&quot;elbow&quot;:&quot;vertical&quot;,&quot;curved&quot;:0,&quot;rounded&quot;:0};" vertex="1" parent="kyCDcOvZ0czLDTHodb9r-15">
          <mxGeometry x="45" y="80" width="10" height="280" as="geometry" />
        </mxCell>
        <mxCell id="kyCDcOvZ0czLDTHodb9r-22" value="" style="endArrow=classic;html=1;rounded=0;" edge="1" parent="1">
          <mxGeometry width="50" height="50" relative="1" as="geometry">
            <mxPoint x="-59.99666666666651" y="140" as="sourcePoint" />
            <mxPoint x="86.17" y="140" as="targetPoint" />
          </mxGeometry>
        </mxCell>
        <mxCell id="kyCDcOvZ0czLDTHodb9r-24" value="Search for Books" style="text;html=1;align=center;verticalAlign=middle;whiteSpace=wrap;rounded=0;" vertex="1" parent="1">
          <mxGeometry x="-50" y="110" width="120" height="30" as="geometry" />
        </mxCell>
        <mxCell id="kyCDcOvZ0czLDTHodb9r-26" value="Display Search results" style="html=1;verticalAlign=bottom;endArrow=open;dashed=1;endSize=8;edgeStyle=elbowEdgeStyle;elbow=vertical;curved=0;rounded=0;" edge="1" parent="1" source="aM9ryv3xv72pqoxQDRHE-1" target="kyCDcOvZ0czLDTHodb9r-15">
          <mxGeometry relative="1" as="geometry">
            <mxPoint x="105" y="290" as="targetPoint" />
            <Array as="points">
              <mxPoint x="10" y="180" />
            </Array>
            <mxPoint x="245" y="290" as="sourcePoint" />
          </mxGeometry>
        </mxCell>
        <mxCell id="kyCDcOvZ0czLDTHodb9r-27" value="View book details" style="html=1;verticalAlign=bottom;endArrow=block;edgeStyle=elbowEdgeStyle;elbow=vertical;curved=0;rounded=0;" edge="1" parent="1" source="kyCDcOvZ0czLDTHodb9r-15" target="aM9ryv3xv72pqoxQDRHE-1">
          <mxGeometry relative="1" as="geometry">
            <mxPoint x="105" y="130" as="sourcePoint" />
            <Array as="points">
              <mxPoint x="10" y="200" />
            </Array>
            <mxPoint x="245" y="130" as="targetPoint" />
          </mxGeometry>
        </mxCell>
        <mxCell id="kyCDcOvZ0czLDTHodb9r-28" value="Display book details" style="html=1;verticalAlign=bottom;endArrow=open;dashed=1;endSize=8;edgeStyle=elbowEdgeStyle;elbow=vertical;curved=0;rounded=0;" edge="1" parent="1" target="kyCDcOvZ0czLDTHodb9r-15">
          <mxGeometry relative="1" as="geometry">
            <mxPoint x="105" y="290" as="targetPoint" />
            <Array as="points">
              <mxPoint x="90" y="250" />
            </Array>
            <mxPoint x="90" y="250" as="sourcePoint" />
          </mxGeometry>
        </mxCell>
        <mxCell id="kyCDcOvZ0czLDTHodb9r-32" value="Add to cart" style="html=1;verticalAlign=bottom;endArrow=block;edgeStyle=elbowEdgeStyle;elbow=vertical;curved=0;rounded=0;" edge="1" parent="1" source="kyCDcOvZ0czLDTHodb9r-15" target="aM9ryv3xv72pqoxQDRHE-1">
          <mxGeometry relative="1" as="geometry">
            <mxPoint x="105" y="130" as="sourcePoint" />
            <Array as="points">
              <mxPoint x="10" y="270" />
            </Array>
            <mxPoint x="245" y="130" as="targetPoint" />
          </mxGeometry>
        </mxCell>
        <mxCell id="kyCDcOvZ0czLDTHodb9r-34" value="Confirm add to cart" style="html=1;verticalAlign=bottom;endArrow=open;dashed=1;endSize=8;edgeStyle=elbowEdgeStyle;elbow=vertical;curved=0;rounded=0;" edge="1" parent="1" source="aM9ryv3xv72pqoxQDRHE-2" target="kyCDcOvZ0czLDTHodb9r-15">
          <mxGeometry relative="1" as="geometry">
            <mxPoint x="-60" y="300" as="targetPoint" />
            <Array as="points">
              <mxPoint x="35" y="290" />
            </Array>
            <mxPoint x="80" y="300" as="sourcePoint" />
          </mxGeometry>
        </mxCell>
        <mxCell id="kyCDcOvZ0czLDTHodb9r-35" value="Checkout" style="html=1;verticalAlign=bottom;endArrow=block;edgeStyle=elbowEdgeStyle;elbow=vertical;curved=0;rounded=0;" edge="1" parent="1" source="kyCDcOvZ0czLDTHodb9r-15" target="aM9ryv3xv72pqoxQDRHE-1">
          <mxGeometry relative="1" as="geometry">
            <mxPoint x="105" y="130" as="sourcePoint" />
            <Array as="points">
              <mxPoint x="10" y="320" />
            </Array>
            <mxPoint x="245" y="130" as="targetPoint" />
          </mxGeometry>
        </mxCell>
        <mxCell id="kyCDcOvZ0czLDTHodb9r-36" value="Get book details" style="html=1;verticalAlign=bottom;endArrow=block;edgeStyle=elbowEdgeStyle;elbow=horizontal;curved=0;rounded=0;" edge="1" parent="1">
          <mxGeometry relative="1" as="geometry">
            <mxPoint x="89" y="219.56" as="sourcePoint" />
            <Array as="points" />
            <mxPoint x="235" y="219.44888888888892" as="targetPoint" />
          </mxGeometry>
        </mxCell>
        <mxCell id="kyCDcOvZ0czLDTHodb9r-37" value="Book details" style="html=1;verticalAlign=bottom;endArrow=open;dashed=1;endSize=8;edgeStyle=elbowEdgeStyle;elbow=vertical;curved=0;rounded=0;" edge="1" parent="1" source="aM9ryv3xv72pqoxQDRHE-6" target="aM9ryv3xv72pqoxQDRHE-2">
          <mxGeometry relative="1" as="geometry">
            <mxPoint x="105" y="160" as="targetPoint" />
            <Array as="points">
              <mxPoint x="190" y="240" />
            </Array>
            <mxPoint x="245" y="160" as="sourcePoint" />
          </mxGeometry>
        </mxCell>
        <mxCell id="kyCDcOvZ0czLDTHodb9r-39" value="Process payment" style="html=1;verticalAlign=bottom;endArrow=block;edgeStyle=elbowEdgeStyle;elbow=vertical;curved=0;rounded=0;" edge="1" parent="1" source="aM9ryv3xv72pqoxQDRHE-1" target="kyCDcOvZ0czLDTHodb9r-10">
          <mxGeometry relative="1" as="geometry">
            <mxPoint x="105" y="130" as="sourcePoint" />
            <Array as="points">
              <mxPoint x="190" y="360" />
            </Array>
            <mxPoint x="245" y="130" as="targetPoint" />
          </mxGeometry>
        </mxCell>
        <mxCell id="kyCDcOvZ0czLDTHodb9r-40" value="Payment Confirmation" style="html=1;verticalAlign=bottom;endArrow=open;dashed=1;endSize=8;edgeStyle=elbowEdgeStyle;elbow=vertical;curved=0;rounded=0;" edge="1" parent="1" source="kyCDcOvZ0czLDTHodb9r-10" target="kyCDcOvZ0czLDTHodb9r-15">
          <mxGeometry relative="1" as="geometry">
            <mxPoint x="105" y="250" as="targetPoint" />
            <Array as="points">
              <mxPoint x="190" y="390" />
            </Array>
            <mxPoint x="245" y="250" as="sourcePoint" />
          </mxGeometry>
        </mxCell>
      </root>
    </mxGraphModel>
  </diagram>
</mxfile>
